<svg width="15" height="16" viewBox="0 0 15 16" fill="none" xmlns="http://www.w3.org/2000/svg">
<path d="M11.25 1.75V6.75M13.75 4.25H8.75" stroke="#607274" stroke-width="1.2" stroke-linecap="round" stroke-linejoin="round"/>
<path d="M1.25 4.25C1.25 3.37492 1.25 2.93738 1.4203 2.60314C1.57011 2.30914 1.80914 2.07011 2.10314 1.9203C2.43738 1.75 2.87492 1.75 3.75 1.75C4.62508 1.75 5.06263 1.75 5.39686 1.9203C5.69086 2.07011 5.92989 2.30914 6.0797 2.60314C6.25 2.93738 6.25 3.37492 6.25 4.25C6.25 5.12508 6.25 5.56263 6.0797 5.89686C5.92989 6.19086 5.69086 6.42989 5.39686 6.5797C5.06263 6.75 4.62508 6.75 3.75 6.75C2.87492 6.75 2.43738 6.75 2.10314 6.5797C1.80914 6.42989 1.57011 6.19086 1.4203 5.89686C1.25 5.56263 1.25 5.12508 1.25 4.25Z" stroke="#607274" stroke-width="1.2"/>
<path d="M1.25 11.75C1.25 10.8749 1.25 10.4374 1.4203 10.1031C1.57011 9.80912 1.80914 9.57013 2.10314 9.42031C2.43738 9.25 2.87492 9.25 3.75 9.25C4.62508 9.25 5.06263 9.25 5.39686 9.42031C5.69086 9.57013 5.92989 9.80912 6.0797 10.1031C6.25 10.4374 6.25 10.8749 6.25 11.75C6.25 12.6251 6.25 13.0626 6.0797 13.3969C5.92989 13.6909 5.69086 13.9299 5.39686 14.0797C5.06263 14.25 4.62508 14.25 3.75 14.25C2.87492 14.25 2.43738 14.25 2.10314 14.0797C1.80914 13.9299 1.57011 13.6909 1.4203 13.3969C1.25 13.0626 1.25 12.6251 1.25 11.75Z" stroke="#607274" stroke-width="1.2"/>
<path d="M8.75 11.75C8.75 10.8749 8.75 10.4374 8.92031 10.1031C9.07013 9.80912 9.30912 9.57013 9.60312 9.42031C9.93737 9.25 10.3749 9.25 11.25 9.25C12.1251 9.25 12.5626 9.25 12.8969 9.42031C13.1909 9.57013 13.4299 9.80912 13.5797 10.1031C13.75 10.4374 13.75 10.8749 13.75 11.75C13.75 12.6251 13.75 13.0626 13.5797 13.3969C13.4299 13.6909 13.1909 13.9299 12.8969 14.0797C12.5626 14.25 12.1251 14.25 11.25 14.25C10.3749 14.25 9.93737 14.25 9.60312 14.0797C9.30912 13.9299 9.07013 13.6909 8.92031 13.3969C8.75 13.0626 8.75 12.6251 8.75 11.75Z" stroke="#607274" stroke-width="1.2"/>
</svg>
