<svg width="15" height="16" viewBox="0 0 15 16" fill="none" xmlns="http://www.w3.org/2000/svg">
<path d="M1.25 8C1.25 5.34835 1.25 4.02252 2.07376 3.19876C2.89753 2.375 4.22335 2.375 6.875 2.375H8.125C10.7766 2.375 12.1025 2.375 12.9262 3.19876C13.75 4.02252 13.75 5.34835 13.75 8C13.75 10.6516 13.75 11.9775 12.9262 12.8012C12.1025 13.625 10.7766 13.625 8.125 13.625H6.875C4.22335 13.625 2.89753 13.625 2.07376 12.8012C1.25 11.9775 1.25 10.6516 1.25 8Z" stroke="#607274" stroke-width="1.2"/>
<path d="M4.0625 2.375V13.625" stroke="#607274" stroke-width="1.2" stroke-linejoin="round"/>
<path d="M10.6286 6.05276L11.0088 6.43138C11.3304 6.75175 11.3304 7.27113 11.0088 7.59144L9.0172 9.61244C8.86051 9.7685 8.66007 9.87369 8.44232 9.91419L7.20795 10.1811C7.01307 10.2233 6.83951 10.0509 6.88126 9.85663L7.14401 8.63425C7.1847 8.41731 7.29032 8.21769 7.44695 8.06169L9.46395 6.05276C9.78557 5.73241 10.307 5.73241 10.6286 6.05276Z" stroke="#607274" stroke-width="1.2" stroke-linecap="round" stroke-linejoin="round"/>
</svg>
